<mxfile host="65bd71144e">
    <diagram id="uj2qHg58nU80toS25AK5" name="Page-1">
        <mxGraphModel dx="2037" dy="1515" grid="1" gridSize="10" guides="1" tooltips="1" connect="1" arrows="1" fold="1" page="0" pageScale="1" pageWidth="1600" pageHeight="900" background="none" math="0" shadow="0">
            <root>
                <mxCell id="0"/>
                <mxCell id="1" parent="0"/>
                <mxCell id="5" value="" style="rounded=0;whiteSpace=wrap;html=1;fontColor=#000000;fillColor=none;" vertex="1" parent="1">
                    <mxGeometry x="80" y="80" width="1120" height="480" as="geometry"/>
                </mxCell>
                <mxCell id="6" value="" style="rounded=0;whiteSpace=wrap;html=1;fontColor=#000000;fillColor=none;" vertex="1" parent="1">
                    <mxGeometry width="1280" height="640" as="geometry"/>
                </mxCell>
                <mxCell id="3" value="&lt;font style=&quot;font-size: 128px&quot;&gt;&lt;i style=&quot;background-color: rgb(255 , 128 , 0) ; color: rgb(255 , 255 , 255)&quot;&gt;Sp&lt;/i&gt;&lt;b&gt;&lt;font color=&quot;#ff8000&quot; style=&quot;background-color: rgb(255 , 255 , 255)&quot;&gt;DB&lt;/font&gt;&lt;/b&gt;&lt;/font&gt;" style="text;html=1;strokeColor=none;fillColor=none;align=center;verticalAlign=middle;whiteSpace=wrap;rounded=0;" vertex="1" parent="1">
                    <mxGeometry x="520" y="130" width="390" height="130" as="geometry"/>
                </mxCell>
                <mxCell id="4" value="&lt;h1 style=&quot;font-size: 23px&quot;&gt;&lt;span style=&quot;box-sizing: border-box;&quot;&gt;SpDB&lt;/span&gt;&lt;span style=&quot;font-weight: 400;&quot;&gt;&amp;nbsp;is a data integration tool designed to organize scientific data from different sources under the same namespace according to a global schema and to provide access to them in a unified form (views). Its&amp;nbsp;&lt;/span&gt;&lt;span style=&quot;box-sizing: border-box;&quot;&gt;main purpose&lt;/span&gt;&lt;span style=&quot;font-weight: 400;&quot;&gt;&amp;nbsp;is to provide a unified data access interface for complex scientific computations in order to enable the interaction and integration between different programs and databases.&lt;/span&gt;&lt;br&gt;&lt;/h1&gt;" style="text;html=1;strokeColor=none;fillColor=none;spacing=5;spacingTop=-20;whiteSpace=wrap;overflow=hidden;rounded=0;" vertex="1" parent="1">
                    <mxGeometry x="170" y="330" width="970" height="190" as="geometry"/>
                </mxCell>
                <mxCell id="7" value="" style="ellipse;whiteSpace=wrap;html=1;aspect=fixed;fontColor=#000000;fillColor=none;" vertex="1" parent="1">
                    <mxGeometry x="377" y="124" width="130" height="130" as="geometry"/>
                </mxCell>
            </root>
        </mxGraphModel>
    </diagram>
</mxfile>